<svg xmlns="http://www.w3.org/2000/svg" width="18" height="30" viewBox="0 0 18 30" fill="none">
    <g clip-path="url(#clip0_503_14374)">
        <path d="M8.67931 0L0 15.2379L8.67931 20.6897L17.3379 15.1862L8.67931 0Z" stroke="black" stroke-width="1.15517"
            stroke-miterlimit="10" stroke-linecap="round" stroke-linejoin="round" />
        <path d="M8.67931 0L0 15.2379L8.67931 20.6897L17.3379 15.1862L8.67931 0Z" stroke="black" stroke-opacity="0.2"
            stroke-width="1.15517" stroke-miterlimit="10" stroke-linecap="round" stroke-linejoin="round" />
        <path d="M8.67931 0L0 15.2379L8.67931 20.6897L17.3379 15.1862L8.67931 0Z" stroke="black" stroke-opacity="0.2"
            stroke-width="1.15517" stroke-miterlimit="10" stroke-linecap="round" stroke-linejoin="round" />
        <path d="M8.67931 0L0 15.2379L8.67931 20.6897L17.3379 15.1862L8.67931 0Z" stroke="black" stroke-opacity="0.2"
            stroke-width="1.15517" stroke-miterlimit="10" stroke-linecap="round" stroke-linejoin="round" />
        <path d="M8.6792 30V23.3793" stroke="black" stroke-width="1.15517" stroke-miterlimit="10" stroke-linecap="round"
            stroke-linejoin="round" />
        <path d="M8.6792 30V23.3793" stroke="black" stroke-opacity="0.2" stroke-width="1.15517" stroke-miterlimit="10"
            stroke-linecap="round" stroke-linejoin="round" />
        <path d="M8.6792 30V23.3793" stroke="black" stroke-opacity="0.2" stroke-width="1.15517" stroke-miterlimit="10"
            stroke-linecap="round" stroke-linejoin="round" />
        <path d="M8.6792 30V23.3793" stroke="black" stroke-opacity="0.2" stroke-width="1.15517" stroke-miterlimit="10"
            stroke-linecap="round" stroke-linejoin="round" />
        <path d="M8.67931 30L0 17.9276L8.67931 23.3793L17.3379 17.8759L8.67931 30Z" stroke="black"
            stroke-width="1.15517" stroke-miterlimit="10" stroke-linecap="round" stroke-linejoin="round" />
        <path d="M8.67931 30L0 17.9276L8.67931 23.3793L17.3379 17.8759L8.67931 30Z" stroke="black" stroke-opacity="0.2"
            stroke-width="1.15517" stroke-miterlimit="10" stroke-linecap="round" stroke-linejoin="round" />
        <path d="M8.67931 30L0 17.9276L8.67931 23.3793L17.3379 17.8759L8.67931 30Z" stroke="black" stroke-opacity="0.2"
            stroke-width="1.15517" stroke-miterlimit="10" stroke-linecap="round" stroke-linejoin="round" />
        <path d="M8.67931 30L0 17.9276L8.67931 23.3793L17.3379 17.8759L8.67931 30Z" stroke="black" stroke-opacity="0.2"
            stroke-width="1.15517" stroke-miterlimit="10" stroke-linecap="round" stroke-linejoin="round" />
        <path d="M8.67931 11.1724L0 15.2379L8.67931 20.6896L17.3379 15.1862L8.67931 11.1724Z" stroke="black"
            stroke-width="1.15517" stroke-miterlimit="10" stroke-linecap="round" stroke-linejoin="round" />
        <path d="M8.67931 11.1724L0 15.2379L8.67931 20.6896L17.3379 15.1862L8.67931 11.1724Z" stroke="black"
            stroke-opacity="0.2" stroke-width="1.15517" stroke-miterlimit="10" stroke-linecap="round"
            stroke-linejoin="round" />
        <path d="M8.67931 11.1724L0 15.2379L8.67931 20.6896L17.3379 15.1862L8.67931 11.1724Z" stroke="black"
            stroke-opacity="0.2" stroke-width="1.15517" stroke-miterlimit="10" stroke-linecap="round"
            stroke-linejoin="round" />
        <path d="M8.67931 11.1724L0 15.2379L8.67931 20.6896L17.3379 15.1862L8.67931 11.1724Z" stroke="black"
            stroke-opacity="0.2" stroke-width="1.15517" stroke-miterlimit="10" stroke-linecap="round"
            stroke-linejoin="round" />
        <path d="M8.6792 0V20.6897" stroke="black" stroke-width="1.15517" stroke-miterlimit="10" stroke-linecap="round"
            stroke-linejoin="round" />
        <path d="M8.6792 0V20.6897" stroke="black" stroke-opacity="0.2" stroke-width="1.15517" stroke-miterlimit="10"
            stroke-linecap="round" stroke-linejoin="round" />
        <path d="M8.6792 0V20.6897" stroke="black" stroke-opacity="0.2" stroke-width="1.15517" stroke-miterlimit="10"
            stroke-linecap="round" stroke-linejoin="round" />
        <path d="M8.6792 0V20.6897" stroke="black" stroke-opacity="0.2" stroke-width="1.15517" stroke-miterlimit="10"
            stroke-linecap="round" stroke-linejoin="round" />
        <path d="M8.67931 0L0 15.2379L8.67931 20.6897L17.3379 15.1862L8.67931 0Z" stroke="black" stroke-width="1.15517"
            stroke-miterlimit="10" stroke-linecap="round" stroke-linejoin="round" />
        <path d="M8.67931 0L0 15.2379L8.67931 20.6897L17.3379 15.1862L8.67931 0Z" stroke="black" stroke-opacity="0.2"
            stroke-width="1.15517" stroke-miterlimit="10" stroke-linecap="round" stroke-linejoin="round" />
        <path d="M8.67931 0L0 15.2379L8.67931 20.6897L17.3379 15.1862L8.67931 0Z" stroke="black" stroke-opacity="0.2"
            stroke-width="1.15517" stroke-miterlimit="10" stroke-linecap="round" stroke-linejoin="round" />
        <path d="M8.67931 0L0 15.2379L8.67931 20.6897L17.3379 15.1862L8.67931 0Z" stroke="black" stroke-opacity="0.2"
            stroke-width="1.15517" stroke-miterlimit="10" stroke-linecap="round" stroke-linejoin="round" />
    </g>
    <defs>
        <clipPath id="clip0_503_14374">
            <rect width="17.3379" height="30" fill="white" />
        </clipPath>
    </defs>
</svg>