<svg width="258" height="202" viewBox="0 0 258 202" fill="none" xmlns="http://www.w3.org/2000/svg">
<g clip-path="url(#clip0_892_5074)">
<path d="M129 19.5L202 73.5" stroke="#999999" stroke-miterlimit="10"/>
<path d="M238 128.5L202 73.5" stroke="#999999" stroke-miterlimit="10"/>
<path d="M129 19.5L57 73.5" stroke="#999999" stroke-miterlimit="10"/>
<path d="M57 73.5L20 128.5" stroke="#999999" stroke-miterlimit="10"/>
<path d="M93 128.5L57 73.5" stroke="#999999" stroke-miterlimit="10"/>
<path d="M165 128.5L202 73.5" stroke="#999999" stroke-miterlimit="10"/>
<path d="M128 182.5L93 128.5" stroke="#999999" stroke-miterlimit="10"/>
<path d="M56 182.5L93 128.5" stroke="#999999" stroke-miterlimit="10"/>
<path d="M129 38.5C139.493 38.5 148 29.9934 148 19.5C148 9.00659 139.493 0.5 129 0.5C118.507 0.5 110 9.00659 110 19.5C110 29.9934 118.507 38.5 129 38.5Z" fill="white" stroke="#999999" stroke-miterlimit="10"/>
<path d="M57 92.5C67.4934 92.5 76 83.9934 76 73.5C76 63.0066 67.4934 54.5 57 54.5C46.5066 54.5 38 63.0066 38 73.5C38 83.9934 46.5066 92.5 57 92.5Z" fill="white" stroke="#999999" stroke-miterlimit="10"/>
<path d="M202 92.5C212.493 92.5 221 83.9934 221 73.5C221 63.0066 212.493 54.5 202 54.5C191.507 54.5 183 63.0066 183 73.5C183 83.9934 191.507 92.5 202 92.5Z" fill="white" stroke="#999999" stroke-miterlimit="10"/>
<path d="M20 147.5C30.4934 147.5 39 138.993 39 128.5C39 118.007 30.4934 109.5 20 109.5C9.50659 109.5 1 118.007 1 128.5C1 138.993 9.50659 147.5 20 147.5Z" fill="white" stroke="#999999" stroke-miterlimit="10"/>
<path d="M165 147.5C175.493 147.5 184 138.993 184 128.5C184 118.007 175.493 109.5 165 109.5C154.507 109.5 146 118.007 146 128.5C146 138.993 154.507 147.5 165 147.5Z" fill="white" stroke="#999999" stroke-miterlimit="10"/>
<path d="M93 147.5C103.493 147.5 112 138.993 112 128.5C112 118.007 103.493 109.5 93 109.5C82.5066 109.5 74 118.007 74 128.5C74 138.993 82.5066 147.5 93 147.5Z" fill="white" stroke="#999999" stroke-miterlimit="10"/>
<path d="M128 201.5C138.493 201.5 147 192.993 147 182.5C147 172.007 138.493 163.5 128 163.5C117.507 163.5 109 172.007 109 182.5C109 192.993 117.507 201.5 128 201.5Z" fill="white" stroke="#999999" stroke-miterlimit="10"/>
<path d="M56 201.5C66.4934 201.5 75 192.993 75 182.5C75 172.007 66.4934 163.5 56 163.5C45.5066 163.5 37 172.007 37 182.5C37 192.993 45.5066 201.5 56 201.5Z" fill="white" stroke="#999999" stroke-miterlimit="10"/>
<path d="M238 147.5C248.493 147.5 257 138.993 257 128.5C257 118.007 248.493 109.5 238 109.5C227.507 109.5 219 118.007 219 128.5C219 138.993 227.507 147.5 238 147.5Z" fill="white" stroke="#999999" stroke-miterlimit="10"/>
</g>
<defs>
<clipPath id="clip0_892_5074">
<rect width="257" height="202" fill="white" transform="translate(0.5)"/>
</clipPath>
</defs>
</svg>
